<svg width="20" height="20" viewBox="0 0 20 20" fill="none" xmlns="http://www.w3.org/2000/svg">
<path d="M7.70711 11.7071C7.89464 11.5196 8 11.2652 8 11C8 10.7348 7.89464 10.4804 7.70711 10.2929C7.51957 10.1054 7.26522 10 7 10C6.73478 10 6.48043 10.1054 6.29289 10.2929C6.10536 10.4804 6 10.7348 6 11C6 11.2652 6.10536 11.5196 6.29289 11.7071C6.48043 11.8946 6.73478 12 7 12C7.26522 12 7.51957 11.8946 7.70711 11.7071Z" fill="white"/>
<path d="M7.70711 14.7071C7.89464 14.5196 8 14.2652 8 14C8 13.7348 7.89464 13.4804 7.70711 13.2929C7.51957 13.1054 7.26522 13 7 13C6.73478 13 6.48043 13.1054 6.29289 13.2929C6.10536 13.4804 6 13.7348 6 14C6 14.2652 6.10536 14.5196 6.29289 14.7071C6.48043 14.8946 6.73478 15 7 15C7.26522 15 7.51957 14.8946 7.70711 14.7071Z" fill="white"/>
<path d="M13 10C12.4477 10 12 10.4477 12 11V14C12 14.5523 12.4477 15 13 15C13.5523 15 14 14.5523 14 14V11C14 10.4477 13.5523 10 13 10Z" fill="white"/>
<path d="M10.7071 11.7071C10.5196 11.8946 10.2652 12 10 12C9.73478 12 9.48043 11.8946 9.29289 11.7071C9.10536 11.5196 9 11.2652 9 11C9 10.7348 9.10536 10.4804 9.29289 10.2929C9.48043 10.1054 9.73478 10 10 10C10.2652 10 10.5196 10.1054 10.7071 10.2929C10.8946 10.4804 11 10.7348 11 11C11 11.2652 10.8946 11.5196 10.7071 11.7071Z" fill="white"/>
<path d="M10.7071 14.7071C10.8946 14.5196 11 14.2652 11 14C11 13.7348 10.8946 13.4804 10.7071 13.2929C10.5196 13.1054 10.2652 13 10 13C9.73478 13 9.48043 13.1054 9.29289 13.2929C9.10536 13.4804 9 13.7348 9 14C9 14.2652 9.10536 14.5196 9.29289 14.7071C9.48043 14.8946 9.73478 15 10 15C10.2652 15 10.5196 14.8946 10.7071 14.7071Z" fill="white"/>
<path fill-rule="evenodd" clip-rule="evenodd" d="M6.43934 4.43934C6.72064 4.15804 7.10218 4 7.5 4H12.5C12.8978 4 13.2794 4.15804 13.5607 4.43934C13.842 4.72064 14 5.10218 14 5.5V6.5C14 6.89782 13.842 7.27936 13.5607 7.56066C13.2794 7.84196 12.8978 8 12.5 8H7.5C7.10218 8 6.72064 7.84196 6.43934 7.56066C6.15804 7.27936 6 6.89782 6 6.5V5.5C6 5.10218 6.15804 4.72064 6.43934 4.43934ZM7.14645 5.14645C7.05268 5.24021 7 5.36739 7 5.5V6.5C7 6.63261 7.05268 6.75979 7.14645 6.85355C7.24021 6.94732 7.36739 7 7.5 7H12.5C12.6326 7 12.7598 6.94732 12.8536 6.85355C12.9473 6.75979 13 6.63261 13 6.5V5.5C13 5.36739 12.9473 5.24021 12.8536 5.14645C12.7598 5.05268 12.6326 5 12.5 5H7.5C7.36739 5 7.24021 5.05268 7.14645 5.14645Z" fill="white"/>
<path fill-rule="evenodd" clip-rule="evenodd" d="M15.2678 17.2678C15.7366 16.7989 16 16.163 16 15.5V4.5C16 3.83696 15.7366 3.20107 15.2678 2.73223C14.7989 2.26339 14.163 2 13.5 2H6.5C5.83696 2 5.20107 2.26339 4.73223 2.73223C4.26339 3.20107 4 3.83696 4 4.5V15.5C4 16.163 4.26339 16.7989 4.73223 17.2678C5.20107 17.7366 5.83696 18 6.5 18H13.5C14.163 18 14.7989 17.7366 15.2678 17.2678ZM14.5607 3.43934C14.842 3.72064 15 4.10218 15 4.5V15.5C15 15.8978 14.842 16.2794 14.5607 16.5607C14.2794 16.842 13.8978 17 13.5 17H6.5C6.10218 17 5.72064 16.842 5.43934 16.5607C5.15804 16.2794 5 15.8978 5 15.5V4.5C5 4.10218 5.15804 3.72064 5.43934 3.43934C5.72064 3.15804 6.10218 3 6.5 3H13.5C13.8978 3 14.2794 3.15804 14.5607 3.43934Z" fill="white"/>
</svg>
