<svg width="24" height="24" viewBox="0 0 24 24" fill="none" xmlns="http://www.w3.org/2000/svg">
<path d="M6.58691 9.59554H10.1057V10.1299H6.58691V9.59554ZM6.58691 13.603H10.1057V14.1373H6.58691V13.603ZM6.58691 7.59187H14.9779V8.12619H6.58691V7.59187Z" fill="#4197D3"/>
<path d="M5.77542 5.18794H5.23407V16.4088C5.23407 16.8514 4.87055 17.2102 4.42204 17.2102C4.27263 17.2102 4.15137 17.3299 4.15137 17.4774C4.15137 17.6249 4.27263 17.7445 4.42204 17.7445H14.7078C15.0374 17.7445 15.356 17.6259 15.6034 17.4106L15.2448 17.0099C15.0964 17.1391 14.9056 17.2102 14.7078 17.2102H5.50474C5.68069 16.9791 5.7757 16.6978 5.77542 16.4088V5.18794ZM15.5197 8.39388H16.0611V3.31781H17.9558C18.1053 3.31781 18.2265 3.19812 18.2265 3.05065C18.2257 2.31328 17.6203 1.71565 16.8732 1.71484H11.1889V2.24917H15.7904C15.6145 2.48026 15.5195 2.76158 15.5197 3.05065V8.39388ZM16.8732 2.24917C17.2172 2.2497 17.5238 2.46343 17.6389 2.78349H16.1109C16.2252 2.4645 16.5305 2.25051 16.8732 2.24917Z" fill="#4197D3"/>
<path d="M6.58691 11.4648H12.2711V11.9992H6.58691V11.4648Z" fill="#4197D3"/>
<path d="M14.9776 3.05037C14.9776 2.90289 14.8563 2.7832 14.7069 2.7832H12.0002C11.8507 2.7832 11.7295 2.90289 11.7295 3.05037V5.72199C11.7295 5.86946 11.8507 5.98914 12.0002 5.98914H14.7069C14.8563 5.98914 14.9776 5.86946 14.9776 5.72199V3.05037ZM14.4363 5.45482H12.2708V3.31753H14.4363V5.45482Z" fill="#EB9AA7"/>
<path d="M16.8074 8.6856C16.3044 8.6856 15.8925 9.08683 15.8925 9.57626V12.9623C15.376 13.0692 14.9775 13.4967 14.9775 14.0304V14.9214C14.9775 15.4771 15.2937 16.0301 15.6638 16.5289C16.0094 16.9948 16.4054 17.3985 16.6929 17.6806V18.2619C16.6929 18.3784 16.802 18.4845 16.9215 18.4845H20.8098C20.9297 18.4845 21.0386 18.3784 21.0386 18.2619V17.1135C21.5325 16.5965 21.8392 15.9064 21.8392 15.1439V13.6965C21.8392 13.2068 21.4273 12.8057 20.9243 12.8057C20.7481 12.8057 20.5928 12.8667 20.4525 12.9519C20.4109 12.499 20.0276 12.1376 19.552 12.1376C19.3758 12.1376 19.2204 12.1985 19.0803 12.2837C19.0385 11.8309 18.6553 11.4694 18.1797 11.4694C18.0097 11.4694 17.8589 11.5255 17.7222 11.6051V9.57626C17.7222 9.08683 17.3103 8.6856 16.8074 8.6856ZM16.8074 9.13097C17.0645 9.13097 17.2648 9.32597 17.2648 9.57626V12.3601C17.2648 12.483 17.3671 12.5829 17.4935 12.5829C17.6199 12.5829 17.7222 12.4833 17.7222 12.3601C17.7222 12.1095 17.9225 11.9148 18.1797 11.9148C18.4368 11.9148 18.6371 12.1098 18.6371 12.3601V13.0283C18.6371 13.1511 18.7395 13.2511 18.8658 13.2511C18.9922 13.2511 19.0946 13.1515 19.0946 13.0283C19.0946 12.7777 19.2949 12.5829 19.552 12.5829C19.8092 12.5829 20.0095 12.7779 20.0095 13.0283V13.6962C20.0095 13.8194 20.1117 13.9193 20.2382 13.9193C20.3646 13.9193 20.4669 13.8194 20.4669 13.6965C20.4669 13.4458 20.6672 13.2511 20.9243 13.2511C21.1815 13.2511 21.3818 13.4458 21.3818 13.6965V15.1439C21.3818 15.8249 21.1035 16.4343 20.6491 16.8771C20.6057 16.9187 20.5809 16.9778 20.5814 17.0371V18.0392H17.1501V17.5938C17.1506 17.5345 17.1256 17.4754 17.0823 17.4335C16.7995 17.1584 16.3799 16.7325 16.0351 16.2679C15.6903 15.8033 15.4347 15.3003 15.4347 14.9214V14.0304C15.4347 13.7349 15.6234 13.4907 15.8922 13.4007V14.6985C15.8906 14.8161 16.0002 14.9246 16.1209 14.9246C16.2417 14.9246 16.3513 14.8164 16.3497 14.6985V9.57626C16.3497 9.32572 16.5502 9.13097 16.8074 9.13097Z" fill="#4197D3" stroke="#4197D3" stroke-width="0.133581"/>
<path fill-rule="evenodd" clip-rule="evenodd" d="M16.6016 19.4805H21.203V21.3506H16.6016V19.4805Z" stroke="#4197D3" stroke-width="0.534323"/>
<path d="M11.1875 1.98047H9.29281H3.33793C2.4409 1.98047 1.71387 2.69806 1.71387 3.58344V4.23637V20.6817C1.71387 21.5672 2.4409 22.2848 3.33793 22.2848H11.1875C12.0846 22.2848 12.8116 21.5672 12.8116 20.6817" stroke="#4197D3" stroke-width="0.534323"/>
<path d="M1.71387 19.3477H12.8116V20.6835" stroke="#4197D3" stroke-width="0.534323"/>
<path d="M5.2334 3.18363H9.29354" stroke="#EB9AA7" stroke-width="0.534323"/>
<path d="M17.6846 5.32031H22.2861M17.6846 7.45761H19.8501" stroke="#4197D3" stroke-width="0.534323"/>
</svg>
