<svg width="24" height="24" viewBox="0 0 24 24" fill="none" xmlns="http://www.w3.org/2000/svg">
<path fill-rule="evenodd" clip-rule="evenodd" d="M5.47531 13.0112C5.41767 13.0943 5.3312 13.1418 5.23896 13.1418H4.70286C4.10336 13.1418 3.61914 12.643 3.61914 12.0255V9.29985C3.61914 8.68828 4.10336 8.18945 4.6971 8.18945H4.91038C5.03144 8.18945 5.12367 8.28447 5.12367 8.40916V9.10982H4.70286C4.60487 9.10982 4.5184 9.19896 4.5184 9.29985V12.0255C4.5184 12.1324 4.5991 12.2155 4.70286 12.2155H5.11215C5.22743 12.2155 5.33696 12.2926 5.37731 12.4055L5.50413 12.738C5.53872 12.8331 5.52719 12.928 5.47531 13.0112Z" fill="#EB9AA7"/>
<path fill-rule="evenodd" clip-rule="evenodd" d="M19.9986 9.29985V12.0255C19.9986 12.643 19.466 13.1418 18.8065 13.1418H18.1343C17.9948 13.1418 17.868 13.0824 17.7856 12.9696C17.7095 12.8627 17.6905 12.7321 17.7412 12.6074L17.8046 12.4649C17.868 12.3105 18.0202 12.2155 18.1914 12.2155H18.8129C18.9269 12.2155 19.0157 12.1324 19.0157 12.0255V9.29985C19.0157 9.19896 18.9206 9.10982 18.8129 9.10982H18.3245V8.58139C18.3245 8.36166 18.5148 8.18945 18.7431 8.18945H18.8129C19.466 8.18945 19.9986 8.68828 19.9986 9.29985Z" fill="#EB9AA7"/>
<mask id="mask0_2373_10699" style="mask-type:alpha" maskUnits="userSpaceOnUse" x="1" y="1" width="22" height="22">
<path fill-rule="evenodd" clip-rule="evenodd" d="M1.71387 1.71484H22.2853V22.2863H1.71387V1.71484Z" fill="white"/>
</mask>
<g mask="url(#mask0_2373_10699)">
<path fill-rule="evenodd" clip-rule="evenodd" d="M14.2558 17.5726L11.4923 19.5587L11.3998 19.6261L11.3073 19.5587L8.81521 17.7688L8.67953 17.6707L8.7967 17.542C9.11744 17.1926 9.3457 16.7758 9.46904 16.3283L9.51224 16.1505L9.67879 16.224C10.3758 16.5428 11.0543 16.7267 11.5416 16.7267C12.0227 16.7267 12.763 16.4999 13.5217 16.1137L13.6944 16.0218L13.7376 16.2118C13.8363 16.6286 14.0275 17.0209 14.2865 17.358L14.3853 17.4807L14.2558 17.5726ZM8.55 14.4402C7.92082 13.9499 7.10043 13.1468 6.77967 12.111L6.77351 12.0925V7.92428L6.94005 7.93654C7.13744 7.95493 7.33483 7.96719 7.52605 7.96719C8.93247 7.96719 10.3142 7.48294 11.4121 6.60638L11.5108 6.53282L11.6095 6.61251C12.7013 7.48294 14.083 7.96719 15.4894 7.96719C15.7546 7.96719 16.026 7.9488 16.2913 7.91202L16.464 7.89363V12.301H13.2318L13.1824 12.2396C13.0159 12.019 12.7444 11.8842 12.4607 11.8842C11.9611 11.8842 11.5601 12.2826 11.5601 12.7791C11.5601 13.2756 11.9611 13.674 12.4607 13.674C12.7444 13.674 13.0159 13.5391 13.1824 13.3185L13.2318 13.2572H15.6066L15.3845 13.5146C15.1748 13.7476 14.9775 13.9437 14.7801 14.1215C13.5711 15.1942 12.2079 15.7765 11.5416 15.7765C10.783 15.7765 9.55544 15.2249 8.55 14.4402ZM6.77967 6.81486C6.92154 4.49167 8.84607 2.67112 11.1592 2.67112H12.0721C12.251 2.67112 12.399 2.67725 12.541 2.69565L12.7075 2.72016L12.6705 2.87954C12.1585 5.27628 9.99336 7.01101 7.51988 7.01101C7.32249 7.01101 7.11894 7.00488 6.91538 6.98036L6.77351 6.96197L6.77967 6.81486ZM13.6327 2.953L13.8054 3.02656C15.3228 3.68245 16.3345 5.12295 16.4517 6.78412L16.4578 6.92511L16.3222 6.94962C16.0507 6.99253 15.7732 7.01092 15.5017 7.01092C14.3668 7.01092 13.2379 6.637 12.3312 5.96272L12.2016 5.86465L12.3065 5.74205C12.9357 4.99422 13.386 4.08701 13.5957 3.1369L13.6327 2.953ZM16.5627 17.5113C15.4648 17.5113 14.632 16.6531 14.632 15.5191V15.4394L14.6937 15.3966C15.5264 14.808 16.2234 14.0909 16.7107 13.3308L16.7354 13.294L17.4262 11.5103V7.09066C17.4262 4.12385 15.0021 1.71484 12.0166 1.71484H11.1592C8.21074 1.71484 5.81125 4.09933 5.81125 7.02937V12.117L6.29238 13.3553C6.90304 14.3974 7.8468 15.1513 8.53149 15.5927L8.60547 15.6417L8.59938 15.7337C8.52532 16.7328 7.68025 17.5113 6.67482 17.5113C2.93062 17.5113 1.33301 18.7986 1.33301 21.8082C1.33301 22.0718 1.54891 22.2864 1.80798 22.2864C2.07321 22.2864 2.28911 22.0718 2.28911 21.8082C2.28911 18.7188 4.4542 18.4614 6.67482 18.4614C7.05108 18.4614 7.40885 18.394 7.74194 18.2592L7.81596 18.2285L7.88998 18.2775L11.116 20.6007C11.1962 20.6559 11.2949 20.6865 11.3936 20.6865C11.5047 20.6865 11.6033 20.6559 11.6897 20.5946L15.0761 18.1549L15.1564 18.0997L15.2427 18.1427C15.6436 18.351 16.1001 18.4614 16.5627 18.4614C18.7772 18.4614 20.9422 18.7188 20.9422 21.8082C20.9422 22.0718 21.1582 22.2864 21.4234 22.2864C21.6886 22.2864 21.9045 22.0718 21.9045 21.8082C21.9045 18.7986 20.3069 17.5113 16.5627 17.5113Z" fill="#4197D3"/>
</g>
</svg>
