<svg width="60" height="60" viewBox="0 0 60 60" fill="none" xmlns="http://www.w3.org/2000/svg">
<g clip-path="url(#clip0_4044_1448)">
<g filter="url(#filter0_d_4044_1448)">
<path fill-rule="evenodd" clip-rule="evenodd" d="M15.7139 51.3807C19.9425 54.2062 24.9141 55.7143 29.9999 55.7143C30.0722 55.7143 30.1443 55.714 30.2165 55.7134C30.2167 55.7134 30.2156 55.714 30.2154 55.7141C30.2151 55.7141 30.2163 55.7143 30.2166 55.7143H48.985C49.7952 55.7143 50.1531 54.694 49.5204 54.1878L46.0799 51.4354C45.6394 51.083 45.6538 50.4085 46.0938 50.0554C46.8202 49.4724 47.5178 48.8477 48.1827 48.1828C53.0051 43.3604 55.7142 36.8199 55.7142 30.0001C55.7142 24.9143 54.2061 19.9427 51.3806 15.714C48.5551 11.4853 44.5391 8.18941 39.8404 6.24316C35.1417 4.29691 29.9714 3.78768 24.9833 4.77987C19.9953 5.77206 15.4134 8.22111 11.8172 11.8173C8.22099 15.4135 5.77194 19.9954 4.77975 24.9835C3.78756 29.9715 4.29679 35.1418 6.24305 39.8405C8.1893 44.5392 11.4852 48.5552 15.7139 51.3807Z" fill="white"/>
</g>
<path d="M36.5278 25.1431C32.1524 25.0947 27.8158 25.1431 23.4017 25.1431C22.4881 25.1352 21.5847 25.3351 20.7597 25.7275C19.9346 26.1199 19.2095 26.6946 18.6391 27.4082C17.837 28.3502 17.3207 29.5017 17.1508 30.7271C16.9809 31.9526 17.1645 33.2011 17.6801 34.3258C18.1956 35.4505 19.0216 36.4045 20.061 37.0756C21.1003 37.7468 22.3097 38.1072 23.5469 38.1143C25.6862 38.1143 27.8351 38.1143 29.9744 38.1143H36.402C38.082 38.0678 39.6785 37.3719 40.8562 36.1729C42.0339 34.9739 42.7009 33.365 42.7172 31.6845C42.7335 30.0039 42.0978 28.3825 40.9436 27.1608C39.7894 25.9392 38.2066 25.2125 36.5278 25.1334V25.1431ZM37.4958 37.2528C37.1484 37.3227 36.795 37.3584 36.4407 37.3593C32.1524 37.3593 27.8739 37.3593 23.5856 37.3593C22.0658 37.3593 20.6082 36.7555 19.5335 35.6808C18.4588 34.6061 17.855 33.1486 17.855 31.6287C17.855 30.1089 18.4588 28.6513 19.5335 27.5766C20.6082 26.5019 22.0658 25.8981 23.5856 25.8981C25.7539 25.8981 27.9223 25.8981 30.0906 25.8981C32.2008 25.8981 34.3208 25.8981 36.4407 25.8981C37.8726 25.8951 39.2536 26.4291 40.3109 27.3948C41.3682 28.3604 42.025 29.6875 42.1514 31.1138C42.2779 32.5401 41.8649 33.962 40.9939 35.0986C40.123 36.2352 38.8575 37.0039 37.4474 37.2528H37.4958Z" fill="#4576AC"/>
<path d="M36.16 24.572C36.667 24.5537 37.1744 24.5992 37.6701 24.7075C38.4542 24.9011 39.1995 25.1915 39.9449 25.4335C39.9243 25.3764 39.8984 25.3213 39.8674 25.269C39.0328 23.6493 37.8101 22.2615 36.3085 21.2295C34.8069 20.1974 33.0731 19.5533 31.2619 19.3545C30.9909 19.3545 30.8941 19.2383 30.9037 18.9576C30.9037 18.2413 30.9037 17.5153 30.9037 16.7893C30.9152 16.6135 30.991 16.4481 31.1167 16.3246C31.4005 16.0855 31.604 15.7648 31.6995 15.4062C31.795 15.0475 31.7779 14.6682 31.6506 14.3195C31.5233 13.9709 31.2919 13.6698 30.9878 13.4571C30.6836 13.2443 30.3214 13.1302 29.9503 13.1302C29.5791 13.1302 29.2169 13.2443 28.9128 13.4571C28.6086 13.6698 28.3772 13.9709 28.2499 14.3195C28.1226 14.6682 28.1055 15.0475 28.201 15.4062C28.2965 15.7648 28.5 16.0855 28.7838 16.3246C28.8984 16.443 28.97 16.5964 28.9871 16.7602C28.9871 17.4862 28.9871 18.2123 28.9871 18.9286C28.9871 19.2287 28.9 19.3061 28.6096 19.3448C26.9918 19.5282 25.4344 20.0667 24.0489 20.9218C22.6633 21.7768 21.4838 22.9274 20.5945 24.2913C20.3332 24.6688 20.1202 25.0851 19.8395 25.5691C21.1591 24.8196 22.6729 24.4825 24.1858 24.6011L36.16 24.572Z" fill="#B8334D"/>
<path d="M36.1406 38.6854C32.2686 38.6854 28.3966 38.6854 24.5826 38.6854C22.9603 38.81 21.3373 38.4531 19.9169 37.6594C20.3701 38.6249 20.9674 39.5159 21.6883 40.302L22.2111 40.8281C22.8532 41.4744 23.5834 42.0268 24.3801 42.469L25.115 42.8769C26.8097 43.6973 28.6849 44.0737 30.5649 43.9707C34.524 43.7868 39.0349 40.8054 39.9448 37.7465L39.7319 37.8336C38.6293 38.4251 37.3914 38.7187 36.1406 38.6854Z" fill="#B8334D"/>
<path d="M17.3711 28.1729C16.7124 28.1048 16.0481 28.2307 15.4599 28.5351C14.8717 28.8395 14.3853 29.3091 14.0606 29.8863C13.708 30.4423 13.5315 31.0918 13.5539 31.7498C13.5764 32.4078 13.7968 33.0437 14.1864 33.5744C14.5264 34.0946 15.0042 34.5103 15.5664 34.7752C16.1287 35.0401 16.7534 35.1438 17.3711 35.0748C16.7924 34.0166 16.4891 32.8299 16.4891 31.6239C16.4891 30.4178 16.7924 29.2311 17.3711 28.1729Z" fill="#B8334D"/>
<path d="M45.6367 29.5765C45.2878 29.0925 44.8183 28.7082 44.2749 28.462C43.7314 28.2157 43.133 28.1161 42.5391 28.1729C43.1084 29.2253 43.4065 30.403 43.4065 31.5996C43.4065 32.7962 43.1084 33.9739 42.5391 35.0263C43.2004 35.0955 43.8675 34.9692 44.4577 34.6629C45.0478 34.3566 45.5352 33.8839 45.8593 33.3033C46.1988 32.731 46.3591 32.07 46.3194 31.4058C46.2797 30.7415 46.0419 30.1043 45.6367 29.5765Z" fill="#B8334D"/>
<path d="M24.6116 27.9503C24.3795 27.9477 24.1493 27.9915 23.9344 28.0791C23.7194 28.1667 23.5242 28.2964 23.3601 28.4605C23.196 28.6246 23.0663 28.8199 22.9787 29.0348C22.8911 29.2497 22.8473 29.48 22.8498 29.7121C22.8472 29.942 22.8908 30.1701 22.9782 30.3828C23.0655 30.5955 23.1948 30.7884 23.3583 30.9501C23.5218 31.1118 23.7162 31.2389 23.9298 31.3239C24.1435 31.4089 24.3721 31.45 24.6019 31.4448C25.0633 31.4423 25.505 31.2579 25.8312 30.9316C26.1574 30.6054 26.3418 30.1637 26.3443 29.7024C26.3394 29.2426 26.1559 28.8027 25.8325 28.4757C25.5092 28.1487 25.0714 27.9603 24.6116 27.9503Z" fill="#4576AC"/>
<path d="M35.3178 27.9503C34.8565 27.9554 34.4158 28.1423 34.0914 28.4703C33.767 28.7983 33.5851 29.2411 33.5851 29.7024C33.6179 30.1433 33.8163 30.5555 34.1403 30.8564C34.4644 31.1572 34.8902 31.3243 35.3323 31.3243C35.7745 31.3243 36.2003 31.1572 36.5243 30.8564C36.8484 30.5555 37.0467 30.1433 37.0796 29.7024C37.077 29.2368 36.8903 28.7912 36.5602 28.4629C36.23 28.1346 35.7834 27.9503 35.3178 27.9503Z" fill="#4576AC"/>
<path d="M32.5396 33.9229L32.4525 34.0004C31.7696 34.6303 30.8745 34.9801 29.9454 34.9801C29.0163 34.9801 28.1212 34.6303 27.4382 34.0004C27.0898 33.6906 26.751 33.6616 26.4702 33.9229C26.1895 34.1843 26.2766 34.5328 26.6251 34.8909C27.5233 35.7377 28.711 36.2093 29.9454 36.2093C31.1798 36.2093 32.3675 35.7377 33.2656 34.8909C33.5657 34.5908 33.6044 34.2811 33.3721 34.0197C33.3248 33.9574 33.2653 33.9052 33.1974 33.8664C33.1294 33.8276 33.0543 33.8029 32.9765 33.7939C32.8987 33.7848 32.82 33.7916 32.7449 33.8138C32.6698 33.8359 32.6 33.8731 32.5396 33.9229Z" fill="#4576AC"/>
</g>
<defs>
<filter id="filter0_d_4044_1448" x="-6.96182e-05" y="5.24521e-05" width="60" height="60" filterUnits="userSpaceOnUse" color-interpolation-filters="sRGB">
<feFlood flood-opacity="0" result="BackgroundImageFix"/>
<feColorMatrix in="SourceAlpha" type="matrix" values="0 0 0 0 0 0 0 0 0 0 0 0 0 0 0 0 0 0 127 0" result="hardAlpha"/>
<feOffset/>
<feGaussianBlur stdDeviation="2.14286"/>
<feComposite in2="hardAlpha" operator="out"/>
<feColorMatrix type="matrix" values="0 0 0 0 0 0 0 0 0 0 0 0 0 0 0 0 0 0 0.3 0"/>
<feBlend mode="normal" in2="BackgroundImageFix" result="effect1_dropShadow_4044_1448"/>
<feBlend mode="normal" in="SourceGraphic" in2="effect1_dropShadow_4044_1448" result="shape"/>
</filter>
<clipPath id="clip0_4044_1448">
<rect width="60" height="60" fill="white"/>
</clipPath>
</defs>
</svg>
