<svg width="24" height="24" viewBox="0 0 24 24" fill="none" xmlns="http://www.w3.org/2000/svg">
<mask id="mask0_2373_10712" style="mask-type:luminance" maskUnits="userSpaceOnUse" x="0" y="3" width="24" height="20">
<path fill-rule="evenodd" clip-rule="evenodd" d="M0 3.92969H24V22.9637H0V3.92969Z" fill="white"/>
</mask>
<g mask="url(#mask0_2373_10712)">
<path fill-rule="evenodd" clip-rule="evenodd" d="M21.2269 10.9789L17.4996 6.23811L19.4019 5.02829L22.8848 9.55227L21.2269 10.9789ZM19.3282 14.4026L14.0777 9.15224C14.0679 9.14212 14.0574 9.13261 14.0466 9.1237C13.971 9.0607 13.8772 9.02255 13.7783 9.01561L11.2047 8.83304C11.0268 8.82078 10.85 8.91541 10.7621 9.07055L9.43851 11.4063C9.34354 11.5739 9.18874 11.6946 9.00291 11.7461C8.81726 11.7976 8.62243 11.7734 8.45455 11.6783C8.28683 11.5833 8.16617 11.4286 8.1147 11.2427C8.06327 11.0569 8.08723 10.8621 8.18247 10.6943L9.9492 7.57624L10.6652 7.37025C10.67 7.36879 10.6745 7.36696 10.6793 7.36546L13.3513 6.59388H16.5799L20.6104 11.7175L19.3282 14.4026ZM19.1333 16.5598C18.8518 16.8414 18.3939 16.8412 18.1125 16.5598C18.1023 16.5495 18.0914 16.54 18.0804 16.531L15.0544 13.4731C14.8715 13.2884 14.5736 13.2869 14.3888 13.4698C14.2041 13.6526 14.2026 13.9505 14.3853 14.1352L17.4441 17.2259L17.4452 17.227C17.7267 17.5084 17.7267 17.9666 17.4452 18.248C17.3088 18.3844 17.1275 18.4594 16.9347 18.4594C16.7417 18.4594 16.5604 18.3844 16.4242 18.248L14.3781 16.1806C14.1952 15.9958 13.8974 15.9943 13.7127 16.177C13.5279 16.36 13.5264 16.6579 13.7091 16.8427L15.724 18.8784C15.7343 18.8913 15.7453 18.9035 15.757 18.9153C16.0384 19.1967 16.0384 19.6548 15.757 19.9362C15.4754 20.2177 15.0172 20.2174 14.7358 19.936L13.6191 18.8076C13.4361 18.6228 13.1382 18.6212 12.9535 18.8041C12.7687 18.9868 12.7672 19.2848 12.95 19.4695L14.0356 20.5663C14.0458 20.5791 14.0568 20.5916 14.0688 20.6032C14.3502 20.8847 14.3502 21.3429 14.0688 21.6243C13.7873 21.9059 13.3293 21.9057 13.0479 21.6243C13.0155 21.5919 12.9774 21.5669 12.9412 21.5392C12.9105 21.5157 12.9024 21.4994 12.9177 21.462C12.9333 21.4241 12.9566 21.3899 12.9722 21.3518C12.9893 21.3094 13.0032 21.2656 13.0168 21.2217C13.0889 20.9891 13.1103 20.7389 13.0778 20.4976C13.0155 20.0346 12.7608 19.6167 12.3748 19.3523C12.1663 19.2097 11.9249 19.1161 11.6748 19.081C11.7961 18.5463 11.6505 17.9666 11.2718 17.5665C10.9602 17.2372 10.5393 17.0525 10.0863 17.0463C10.0699 17.0461 10.0534 17.0461 10.0368 17.0463C10.0468 16.6141 9.88971 16.1848 9.59186 15.87C9.28003 15.5408 8.859 15.356 8.40641 15.3497C8.27181 15.3479 8.13593 15.3622 8.00485 15.3925C7.94882 15.0026 7.75235 14.6419 7.45482 14.3839C7.15907 14.128 6.78718 13.9858 6.39117 13.9804C5.97419 13.9743 5.5646 14.1281 5.25499 14.4077L3.43583 11.9565L7.78786 6.65447L9.17486 7.03387L7.36342 10.2304C7.14441 10.6168 7.08914 11.0655 7.20759 11.4936C7.32609 11.9219 7.60403 12.2782 7.99057 12.4972C8.01471 12.5109 8.03908 12.5239 8.06379 12.5363C8.06562 12.5373 8.06745 12.5382 8.06947 12.5392C8.13447 12.5716 8.20131 12.5994 8.26903 12.6228C8.58454 12.7321 8.92526 12.744 9.25397 12.6532C9.68211 12.5347 10.0384 12.2566 10.2574 11.8702L11.4346 9.79295L13.5364 9.94192L19.1335 15.5387C19.4147 15.8204 19.4147 16.2784 19.1333 16.5598ZM10.3543 21.8117C10.0728 21.5303 10.0728 21.0724 10.3543 20.791L10.9281 20.2171C10.9455 20.1997 10.9636 20.1834 10.9823 20.168L10.9836 20.167C11.0769 20.0911 11.1867 20.0404 11.3037 20.0182C11.3064 20.0179 11.3091 20.0175 11.3119 20.0171C11.332 20.0134 11.3525 20.0106 11.3731 20.0087C11.3813 20.008 11.3895 20.008 11.3979 20.0074C11.4148 20.0066 11.4315 20.0054 11.4485 20.0056C11.645 20.0084 11.8279 20.0885 11.9634 20.2318C11.98 20.2493 11.9956 20.2677 12.0099 20.2865C12.2263 20.5694 12.1972 20.9896 11.9286 21.2584L11.3751 21.812C11.0937 22.0934 10.6358 22.0932 10.3543 21.8117ZM8.44046 20.3323C8.30403 20.1961 8.22897 20.0148 8.22897 19.822C8.22897 19.6292 8.30403 19.4479 8.44046 19.3114L9.55303 18.1988C9.78094 17.971 10.1466 17.9219 10.4257 18.0843C10.6806 18.2326 10.8141 18.5237 10.7703 18.8138C10.7463 18.9733 10.6705 19.1232 10.5564 19.2373L9.46149 20.3323C9.32503 20.4687 9.14374 20.5438 8.95097 20.5438C8.75811 20.5438 8.57683 20.4687 8.44046 20.3323ZM6.76028 18.6358C6.62388 18.4996 6.54879 18.3184 6.54879 18.1255C6.54879 17.9327 6.62388 17.7514 6.76028 17.615L7.87301 16.5022C8.08614 16.2891 8.42121 16.2307 8.69366 16.3606C8.97454 16.4944 9.1326 16.7993 9.09137 17.1059C9.06943 17.2696 8.99323 17.4238 8.87649 17.5408L7.78128 18.6358C7.64485 18.7722 7.4636 18.8473 7.2708 18.8473C7.07796 18.8473 6.89671 18.7722 6.76028 18.6358ZM5.28387 15.7068L5.85776 15.133C5.87514 15.1156 5.89346 15.0991 5.91215 15.0838C6.02435 14.9922 6.16023 14.9376 6.30418 14.9247C6.30817 14.9242 6.31239 14.9242 6.31644 14.9241C6.33692 14.9224 6.35744 14.9213 6.37815 14.9215C6.5748 14.9242 6.7575 15.0046 6.89305 15.1477C7.15888 15.4287 7.1446 15.8879 6.86115 16.1714L6.3047 16.7278C6.02327 17.0092 5.56534 17.0092 5.28387 16.7278C5.00245 16.4463 5.00245 15.9883 5.28387 15.7068ZM5.01565 5.02299L6.91701 6.23206L2.78083 11.2711L1.12337 9.84455L5.01565 5.02299ZM23.9022 9.3313L19.8853 4.11315C19.7367 3.92016 19.4655 3.87254 19.2597 4.00329L16.6663 5.65272H13.2837C13.24 5.65272 13.1965 5.66201 13.1543 5.67432L10.5317 6.42927L7.81041 5.68493L5.16618 4.00329C4.96398 3.87474 4.69778 3.91833 4.54743 4.10474L0.104383 9.60815C-0.0552566 9.8059 -0.0289083 10.0947 0.163702 10.2604L2.49245 12.2644L4.58168 15.0799C3.97064 15.7308 3.98257 16.7575 4.61831 17.3934C4.90011 17.6751 5.25842 17.8342 5.62706 17.8712C5.61423 17.9546 5.60762 18.0394 5.60762 18.1255C5.60762 18.5697 5.78069 18.9874 6.09471 19.3014C6.40887 19.6156 6.82659 19.7886 7.2708 19.7886C7.27682 19.7886 7.28269 19.7883 7.28851 19.7881C7.28837 19.7995 7.28781 19.8106 7.28781 19.822C7.28781 20.2662 7.46083 20.6839 7.77485 20.998C8.08905 21.3121 8.50673 21.4851 8.95097 21.4851C9.03866 21.4851 9.1254 21.478 9.2106 21.4648C9.24669 21.8347 9.40611 22.1946 9.6888 22.4773C10.013 22.8016 10.4389 22.9637 10.8648 22.9637C11.2907 22.9637 11.7165 22.8016 12.0408 22.4773L12.2952 22.223L12.402 22.309C12.7234 22.6205 13.1409 22.7763 13.5585 22.7763C13.9843 22.7763 14.4102 22.6141 14.7344 22.2898C15.0652 21.959 15.2272 21.5223 15.2205 21.0878C15.6548 21.0944 16.0917 20.9325 16.4225 20.6018C16.753 20.2711 16.9151 19.8348 16.9088 19.4005C17.3612 19.4076 17.7903 19.2339 18.1106 18.9136C18.4414 18.5827 18.6035 18.146 18.5967 17.7115C19.0315 17.718 19.4679 17.5562 19.7989 17.2253C20.3636 16.6606 20.4363 15.7878 20.0175 15.1434L21.5429 11.9486L23.8364 9.97509C24.0259 9.81198 24.0548 9.52921 23.9022 9.3313Z" fill="#4197D3"/>
</g>
<path fill-rule="evenodd" clip-rule="evenodd" d="M9.1279 4.35078C9.21978 4.4427 9.3403 4.48868 9.46081 4.48868C9.58107 4.48868 9.70158 4.4427 9.79347 4.35078C9.97733 4.16695 9.97733 3.86904 9.79347 3.68522L7.56711 1.46599C7.38328 1.28217 7.08537 1.28217 6.90155 1.46599C6.71771 1.64982 6.71771 1.94773 6.90155 2.13161L9.1279 4.35078Z" fill="#EB9AA7"/>
<path fill-rule="evenodd" clip-rule="evenodd" d="M14.8728 4.35078C14.7809 4.4427 14.6605 4.48868 14.54 4.48868C14.4196 4.48868 14.2991 4.4427 14.2072 4.35078C14.0234 4.16695 14.0234 3.86904 14.2072 3.68522L16.4336 1.46599C16.6174 1.28217 16.9154 1.28217 17.0992 1.46599C17.2831 1.64982 17.2831 1.94773 17.0992 2.13161L14.8728 4.35078Z" fill="#EB9AA7"/>
<mask id="mask1_2373_10712" style="mask-type:luminance" maskUnits="userSpaceOnUse" x="11" y="0" width="2" height="4">
<path fill-rule="evenodd" clip-rule="evenodd" d="M11.5303 0.046875H12.4715V3.64837H11.5303V0.046875Z" fill="white"/>
</mask>
<g mask="url(#mask1_2373_10712)">
<path fill-rule="evenodd" clip-rule="evenodd" d="M12.0008 3.64838C12.2606 3.64838 12.4715 3.43764 12.4715 3.17777V0.517435C12.4715 0.257615 12.2606 0.046875 12.0008 0.046875C11.741 0.046875 11.5303 0.257615 11.5303 0.517435V3.17777C11.5303 3.43764 11.741 3.64838 12.0008 3.64838Z" fill="#EB9AA7"/>
</g>
</svg>
