<svg xmlns="http://www.w3.org/2000/svg" width="30" height="30" fill="none"><mask id="a" width="30" height="25" x="0" y="4" maskUnits="userSpaceOnUse" style="mask-type:alpha"><path fill="#fff" fill-rule="evenodd" d="M0 4.913h30v23.792H0V4.913Z" clip-rule="evenodd"/></mask><g mask="url(#a)"><path fill="#4197D3" fill-rule="evenodd" d="m26.534 13.724-4.66-5.926 2.378-1.512 4.354 5.655-2.072 1.783Zm-2.374 4.28-6.563-6.563a.588.588 0 0 0-.374-.17l-3.217-.229a.598.598 0 0 0-.553.297l-1.655 2.92a.897.897 0 0 1-.544.424.897.897 0 0 1-.686-.084.897.897 0 0 1-.425-.545.895.895 0 0 1 .085-.685l2.209-3.898.895-.257c.005-.002.011-.005.017-.006l3.34-.965h4.036l5.038 6.405-1.603 3.356Zm-.243 2.696a.903.903 0 0 1-1.277 0 .498.498 0 0 0-.04-.035l-3.782-3.823a.588.588 0 0 0-.836.828l3.823 3.863.002.001a.903.903 0 0 1-1.277 1.277l-2.557-2.585a.588.588 0 1 0-.837.828l2.519 2.545a.578.578 0 0 0 .041.046.904.904 0 0 1-1.276 1.276l-1.396-1.41a.588.588 0 1 0-.837.827l1.357 1.37a.53.53 0 0 0 .042.047.903.903 0 0 1-1.276 1.276c-.04-.04-.088-.072-.133-.106-.039-.03-.049-.05-.03-.097.02-.047.049-.09.068-.138a2.12 2.12 0 0 0 .132-1.068 2.07 2.07 0 0 0-.879-1.43 2.064 2.064 0 0 0-.874-.34 2.098 2.098 0 0 0-.504-1.893 2.063 2.063 0 0 0-1.544-.65 2.077 2.077 0 0 0-.556-1.47 2.065 2.065 0 0 0-1.482-.651 2.113 2.113 0 0 0-.502.053 2.063 2.063 0 0 0-2.017-1.765 2.084 2.084 0 0 0-1.42.534l-2.274-3.064 5.44-6.627 1.734.474-2.265 3.996a2.065 2.065 0 0 0-.195 1.579 2.065 2.065 0 0 0 1.327 1.411c.395.137.82.152 1.232.038.535-.148.98-.496 1.254-.979l1.471-2.596 2.628.186 6.996 6.996a.904.904 0 0 1 0 1.276Zm-10.974 6.565a.903.903 0 0 1 0-1.276l.717-.717a.928.928 0 0 1 .07-.063.899.899 0 0 1 .4-.186h.01a.85.85 0 0 1 .076-.011l.032-.002c.02-.001.041-.003.063-.002a.897.897 0 0 1 .701.35c.27.354.235.88-.101 1.216l-.692.692a.903.903 0 0 1-1.276 0Zm-2.392-1.849a.895.895 0 0 1-.265-.638c0-.24.094-.467.265-.638l1.39-1.39a.912.912 0 0 1 1.091-.144c.319.185.486.55.43.912a.954.954 0 0 1-.267.53l-1.368 1.368a.897.897 0 0 1-.638.264.896.896 0 0 1-.638-.264Zm-2.1-2.12a.895.895 0 0 1-.265-.638c0-.241.094-.468.264-.639l1.391-1.39a.912.912 0 0 1 1.026-.178.9.9 0 0 1 .497.932.952.952 0 0 1-.268.544l-1.37 1.368a.896.896 0 0 1-.637.265.896.896 0 0 1-.639-.265Zm-1.846-3.662.717-.717a.9.9 0 0 1 .558-.26l.016-.001a.897.897 0 0 1 .72.28c.333.35.315.925-.04 1.279l-.695.695a.903.903 0 0 1-1.276-1.276ZM6.27 6.28l2.376 1.512-5.17 6.299-2.072-1.784L6.27 6.28Zm23.608 5.386-5.021-6.523a.588.588 0 0 0-.782-.137l-3.242 2.062h-4.228a.582.582 0 0 0-.162.027l-3.278.943-3.402-.93-3.305-2.102a.588.588 0 0 0-.774.127L.13 12.01a.588.588 0 0 0 .075.815l2.91 2.505 2.612 3.52a2.081 2.081 0 0 0 .046 2.892c.352.352.8.55 1.26.597a2.065 2.065 0 0 0 .585 1.788c.393.392.915.608 1.47.608h.023l-.001.042c0 .555.216 1.078.609 1.47a2.066 2.066 0 0 0 1.794.584 2.072 2.072 0 0 0 2.068 1.874c.532 0 1.065-.203 1.47-.609l.318-.318.133.108c.402.39.924.584 1.446.584a2.072 2.072 0 0 0 2.078-2.11 2.075 2.075 0 0 0 2.11-2.11 2.067 2.067 0 0 0 1.502-.608c.414-.414.616-.96.608-1.503a2.074 2.074 0 0 0 1.503-.608 2.082 2.082 0 0 0 .273-2.602l1.907-3.994 2.866-2.466a.588.588 0 0 0 .083-.805Z" clip-rule="evenodd"/></g><path fill="#EB9AA7" fill-rule="evenodd" d="M11.41 5.437a.587.587 0 0 0 .831 0 .588.588 0 0 0 0-.832L9.458 1.831a.588.588 0 1 0-.832.832l2.783 2.774ZM18.59 5.437a.586.586 0 0 1-.831 0 .588.588 0 0 1 0-.832l2.783-2.774a.588.588 0 1 1 .832.832L18.59 5.437Z" clip-rule="evenodd"/><mask id="b" width="2" height="5" x="14" y="0" maskUnits="userSpaceOnUse" style="mask-type:alpha"><path fill="#fff" fill-rule="evenodd" d="M14.412.059h1.176V4.56h-1.176V.059Z" clip-rule="evenodd"/></mask><g mask="url(#b)"><path fill="#EB9AA7" fill-rule="evenodd" d="M15 4.56a.588.588 0 0 0 .588-.588V.647a.588.588 0 0 0-1.176 0v3.325c0 .325.263.589.588.589Z" clip-rule="evenodd"/></g></svg>