<svg width="24" height="24" viewBox="0 0 24 24" fill="none" xmlns="http://www.w3.org/2000/svg">
<path d="M2.59866 19.501H12.6254C13.114 19.501 13.5101 19.1029 13.5101 18.6117V14.1651H12.9203V18.6117C12.9203 18.7754 12.7883 18.9081 12.6256 18.9081H3.77815C3.61514 18.9081 3.48322 18.7754 3.48322 18.6114V2.6044C3.48322 2.44065 3.61514 2.30795 3.77792 2.30795H12.6251C12.7882 2.30795 12.9201 2.44065 12.9201 2.6044V5.86523H13.51V2.60393C13.51 2.11294 13.114 1.71484 12.6251 1.71484H2.59866C2.1101 1.71484 1.71387 2.11294 1.71387 2.60416V18.6117C1.71387 19.1029 2.10987 19.501 2.59866 19.501ZM2.30396 6.45789H2.89336V8.23653H2.30396V6.45789ZM2.30396 8.82939H2.89336V10.6078H2.30396V8.82939ZM2.59866 18.9081C2.43588 18.9081 2.30396 18.7754 2.30396 18.6114V11.2009H2.89336V18.612C2.89428 18.7131 2.91224 18.8131 2.94654 18.9084L2.59866 18.9081ZM2.59866 2.30772H2.94654C2.91224 2.4027 2.89428 2.5032 2.89359 2.60416V5.86501H2.30373V2.60393C2.30373 2.44065 2.43588 2.30772 2.59866 2.30772Z" fill="#4197D3"/>
<path d="M12.3303 5.86503V3.19706C12.3303 3.03332 12.1984 2.90039 12.0356 2.90039H4.36795C4.20517 2.90039 4.07324 3.03332 4.07324 3.19706V16.8331C4.07324 16.9968 4.20517 17.1295 4.36795 17.1295H12.0355C12.1984 17.1295 12.3303 16.9968 12.3303 16.8331V14.1653H11.7407V16.5366H4.66264V3.4935H11.7405V5.86503H12.3303Z" fill="#4197D3"/>
<path d="M8.20216 18.6116C8.52794 18.6116 8.79202 18.3461 8.79202 18.0187C8.79202 17.6912 8.52794 17.4258 8.20216 17.4258C7.87639 17.4258 7.6123 17.6912 7.6123 18.0187C7.6123 18.3461 7.87639 18.6116 8.20216 18.6116Z" fill="#EB9AA7"/>
<path d="M12.035 8.82812C11.3834 8.82812 10.8555 9.35887 10.8555 10.0136C10.8555 10.6686 11.3836 11.1994 12.035 11.1994C12.6866 11.1994 13.2147 10.6686 13.2147 10.0136C13.2147 9.35887 12.6866 8.82812 12.035 8.82812ZM12.035 10.6065C11.7094 10.6065 11.4454 10.3412 11.4454 10.0136C11.4454 9.68638 11.7094 9.42075 12.035 9.42075C12.3608 9.42075 12.6249 9.68638 12.6249 10.0136C12.6249 10.3412 12.3608 10.6065 12.035 10.6065Z" fill="#EB9AA7"/>
<path d="M19.1338 8.50391H22.2855V9.09742H19.1338V8.50391Z" fill="#4197D3"/>
<path d="M17.6393 6.45734H9.38191V5.56802C9.38191 5.40427 9.25 5.27134 9.08723 5.27134H7.90726C7.2557 5.27134 6.72754 5.80259 6.72754 6.45734V12.3861C6.72754 13.0409 7.2557 13.5717 7.90726 13.5717H18.5239V12.9788H17.934V12.3859H18.2289V11.793H17.9342V9.12531H18.5236V8.53242H17.9342V7.05021H19.4086V6.45734H17.6393ZM7.90749 5.86445H8.79228V11.2001H7.90726C7.69936 11.2011 7.4956 11.2586 7.3174 11.3662V6.45734C7.3174 6.12985 7.58171 5.86445 7.90749 5.86445ZM17.0494 12.9786H7.90749C7.58171 12.9786 7.31763 12.7131 7.31763 12.3857C7.31763 12.0585 7.58171 11.7928 7.90749 11.7928H9.08723C9.25 11.7928 9.38191 11.6601 9.38191 11.4963V8.23598H15.0146C15.1327 8.81803 15.5856 9.27317 16.1648 9.39206V10.637C15.5856 10.7559 15.1327 11.2107 15.0146 11.793L9.08723 11.7928V12.3859H15.2801C15.443 12.3859 15.5749 12.2532 15.5749 12.0895C15.5749 11.5984 15.9709 11.2001 16.4598 11.2001C16.6225 11.2001 16.7545 11.0674 16.7545 10.9037V9.12506C16.7545 8.96151 16.6225 8.82883 16.4598 8.82883C15.9709 8.82883 15.5749 8.43054 15.5749 7.93953C15.5749 7.77579 15.443 7.64287 15.2803 7.64287H9.38166V7.05021H17.3446V12.979L17.0494 12.9786Z" fill="#4197D3"/>
<path d="M18.8193 11.793H19.4091V12.3866H18.8193V11.793Z" fill="#EB9AA7"/>
<path fill-rule="evenodd" clip-rule="evenodd" d="M21.9484 16.2274C20.8679 16.2274 19.8203 15.9284 18.8063 15.3301C17.8753 15.9282 16.828 16.2274 15.6641 16.2274C15.3648 19.3684 16.4124 21.3877 18.8063 22.285C21.167 21.5372 22.2143 19.5179 21.9484 16.2274Z" stroke="#4197D3" stroke-width="0.706589"/>
<path d="M17.085 18.6128L18.229 19.7394L20.5173 17.4863" stroke="#EB9AA7" stroke-width="0.706589"/>
</svg>
