<svg width="24" height="24" viewBox="0 0 24 24" fill="none" xmlns="http://www.w3.org/2000/svg">
<g clip-path="url(#clip0_2373_10730)">
<mask id="mask0_2373_10730" style="mask-type:luminance" maskUnits="userSpaceOnUse" x="0" y="0" width="24" height="24">
<path d="M24 0H0V24H24V0Z" fill="white"/>
</mask>
<g mask="url(#mask0_2373_10730)">
<path d="M12.9805 4.26942V7.30673C12.9805 7.52698 13.068 7.73821 13.2237 7.89397C13.3795 8.04973 13.5907 8.13723 13.811 8.13723H16.5635" stroke="#4197D3" stroke-width="0.644057" stroke-linecap="round"/>
<path d="M12.3423 18.5781H11.0347H6.96694C6.53542 18.5781 6.12156 18.4048 5.81642 18.0963C5.51127 17.7878 5.33984 17.3693 5.33984 16.9329V5.41658C5.33984 4.98026 5.51127 4.56177 5.81642 4.25323C6.12156 3.94473 6.53542 3.77138 6.96694 3.77138H12.1745C12.4864 3.77138 12.7853 3.89618 13.0046 4.11794L16.3922 7.54318C16.6084 7.76179 16.7297 8.05678 16.7297 8.36422V11.4857" stroke="#4197D3" stroke-width="0.644057" stroke-linecap="round"/>
<path d="M7.19922 11.3142H12.3421" stroke="#4197D3" stroke-width="0.644057" stroke-linecap="round"/>
<path d="M7.19922 14.0565H10.6278" stroke="#4197D3" stroke-width="0.644057" stroke-linecap="round"/>
<path d="M7.19922 8.57216H12.3421" stroke="#4197D3" stroke-width="0.644057" stroke-linecap="round"/>
<path d="M11.6768 15.7714C11.6768 16.3083 11.7808 16.8401 11.9832 17.3363C12.1856 17.8327 12.4823 18.2839 12.8568 18.6643C13.2312 19.0447 13.676 19.3467 14.1659 19.5528C14.6558 19.7589 15.181 19.8651 15.7116 19.8651C16.2422 19.8651 16.7675 19.7589 17.2573 19.5528C17.7472 19.3467 18.192 19.0447 18.5665 18.6643C18.9409 18.2839 19.2376 17.8327 19.44 17.3363C19.6424 16.8401 19.7465 16.3083 19.7465 15.7714C19.7465 15.2345 19.6424 14.7028 19.44 14.2065C19.2376 13.7101 18.9409 13.2589 18.5665 12.8785C18.192 12.4981 17.7472 12.1961 17.2573 11.99C16.7675 11.7839 16.2422 11.6777 15.7116 11.6777C15.181 11.6777 14.6558 11.7839 14.1659 11.99C13.676 12.1961 13.2312 12.4981 12.8568 12.8785C12.4823 13.2589 12.1856 13.7101 11.9832 14.2065C11.7808 14.7028 11.6768 15.2345 11.6768 15.7714Z" stroke="#EB9AA7" stroke-width="0.644571" stroke-linecap="round" stroke-linejoin="round"/>
<path d="M14.2275 14.9333H14.2326" stroke="#EB9AA7" stroke-width="0.754286" stroke-linecap="round" stroke-linejoin="round"/>
<path d="M17.2012 14.9335H17.2063" stroke="#EB9AA7" stroke-width="0.754286" stroke-linecap="round" stroke-linejoin="round"/>
<path d="M14.6035 17.5338C14.752 17.3277 14.9293 17.1639 15.125 17.0521C15.3206 16.9403 15.5307 16.8827 15.7429 16.8827C15.9552 16.8827 16.1652 16.9403 16.3609 17.0521C16.5565 17.1639 16.7338 17.3277 16.8824 17.5338" stroke="#EB9AA7" stroke-width="0.565714" stroke-linecap="round" stroke-linejoin="round"/>
</g>
</g>
<defs>
<clipPath id="clip0_2373_10730">
<rect width="24" height="24" fill="white"/>
</clipPath>
</defs>
</svg>
