<svg width="24" height="24" viewBox="0 0 24 24" fill="none" xmlns="http://www.w3.org/2000/svg">
<path fill-rule="evenodd" clip-rule="evenodd" d="M11.9213 10.6534C12.4423 10.6534 12.8804 11.0505 12.8787 11.551L12.8634 16.7564L14.536 15.1981C14.7014 15.0441 14.9152 14.966 15.126 14.9664C15.3367 14.9669 15.5457 15.0454 15.7002 15.2051L15.7897 15.2976C15.945 15.4578 16.007 15.669 15.99 15.8675C15.9729 16.0661 15.8861 16.255 15.7556 16.4169L12.9638 19.8869L12.9407 19.9192C12.9343 19.9287 12.9283 19.9384 12.9228 19.9484L12.9175 19.9571L12.9158 19.9667L12.9053 20.0274L12.9001 20.085V20.678H13.3652C13.5232 20.678 13.6471 20.7784 13.7178 20.8901C13.7896 21.0083 13.8262 21.1445 13.8234 21.2828V22.4448C13.8262 22.5831 13.7896 22.7193 13.7178 22.8376C13.6471 22.9497 13.5232 23.0496 13.3652 23.0496H6.8896C6.73164 23.0496 6.60771 22.9493 6.53702 22.8376C6.46527 22.7193 6.42864 22.5831 6.43142 22.4448V21.2828C6.42864 21.1445 6.46527 21.0083 6.53702 20.8901C6.60771 20.7779 6.73164 20.678 6.8896 20.678H7.32509C7.33208 20.5183 7.34735 20.1068 7.30982 19.9039C7.29825 19.8204 7.27022 19.74 7.22735 19.6674L7.20117 19.6181C7.14182 19.5029 7.06022 19.3253 6.95811 18.9548C6.83942 18.5245 6.82502 17.6588 6.82328 16.8563L6.84466 15.343C6.81411 14.8438 7.24873 14.448 7.73702 14.448C7.95259 14.4482 8.16061 14.5274 8.32175 14.6706C8.46444 14.3695 8.76248 14.157 9.11375 14.157C9.33542 14.157 9.53571 14.2416 9.68975 14.3795C9.83288 14.0802 10.13 13.869 10.48 13.869C10.6602 13.869 10.826 13.9253 10.9644 14.02V11.5506C10.9644 11.0509 11.4007 10.6538 11.9217 10.6538L11.9213 10.6534ZM11.9213 11.0431C11.6019 11.0431 11.3619 11.2717 11.3619 11.5497V15.7973C11.3628 15.8675 11.3252 15.933 11.2633 15.9683C11.2013 16.0037 11.1245 16.0037 11.0625 15.9683C11.0006 15.933 10.9626 15.8675 10.9635 15.7973V15.0236L10.9631 15.0101V14.7814C10.9631 14.4816 10.7431 14.2591 10.4791 14.2591C10.2151 14.2591 9.99477 14.4821 9.99477 14.7814V15.0354V15.048L9.9952 15.0576L9.99564 15.0694V16.0805C9.99651 16.1507 9.95899 16.2162 9.89659 16.2515C9.83419 16.2869 9.75826 16.2869 9.69586 16.2515C9.63346 16.2162 9.59593 16.1507 9.59724 16.0805V15.0694C9.59724 14.7696 9.37688 14.5471 9.11288 14.5471C8.84888 14.5471 8.62851 14.7696 8.62851 15.0694V15.3352V15.3386L8.62808 15.3434L8.62851 16.3445C8.62939 16.4147 8.59142 16.4802 8.52946 16.5155C8.46749 16.5509 8.39069 16.5509 8.32873 16.5155C8.26677 16.4802 8.2288 16.4147 8.23011 16.3445V15.3487C8.23011 15.0585 8.00888 14.8377 7.73571 14.8377C7.46255 14.8377 7.21688 15.0629 7.24088 15.3317C7.2415 15.3395 7.24165 15.3474 7.24131 15.3552L7.21993 16.855C7.22168 17.6496 7.26051 18.5608 7.3408 18.8527C7.43768 19.204 7.50226 19.3392 7.55506 19.4418L7.56597 19.4623C7.61571 19.5578 7.6672 19.6573 7.69993 19.8345C7.74837 20.0968 7.73702 20.4738 7.72611 20.6784H12.5008V20.0776V20.0666L12.5082 19.9824L12.5095 19.9706C12.5143 19.9274 12.52 19.8803 12.5431 19.8192C12.5628 19.7677 12.5833 19.7381 12.602 19.7114L12.6095 19.7005L12.6479 19.6473L12.6496 19.6447L15.4415 16.1747C15.5309 16.0634 15.5828 15.94 15.5916 15.8348C15.6003 15.7296 15.5759 15.6454 15.4991 15.566L15.4096 15.4735C15.2551 15.3142 14.992 15.3098 14.8083 15.4809L13.0209 17.1456L13.0179 17.1509C13.0096 17.1648 13.0013 17.1788 12.9882 17.1949C12.9476 17.2442 12.8621 17.3202 12.7347 17.3136C12.6752 17.3095 12.6191 17.2844 12.5763 17.2429C12.5509 17.2175 12.5306 17.1875 12.5165 17.1544C12.4929 17.1016 12.4838 17.0566 12.4772 17.0143C12.4633 16.9296 12.4624 16.8537 12.4624 16.8537V16.8489L12.4781 11.5497C12.479 11.2726 12.2381 11.0435 11.9187 11.0435L11.9213 11.0431ZM6.89659 21.0677C6.8944 21.0698 6.88699 21.0764 6.8752 21.0952C6.8439 21.1525 6.8281 21.217 6.82939 21.2824V22.4444C6.82939 22.5256 6.85251 22.5958 6.8752 22.632C6.88093 22.642 6.88797 22.6511 6.89615 22.6591H13.3578C13.3662 22.6511 13.3733 22.642 13.3792 22.632C13.4019 22.5958 13.425 22.5256 13.425 22.4444V21.2824C13.4263 21.217 13.4105 21.1525 13.3792 21.0952C13.3674 21.0768 13.3609 21.0698 13.3583 21.0677H6.89702H6.89659Z" fill="#4197D3"/>
<path d="M11.9216 10.6534L11.7235 10.7451L11.5803 10.4352H11.9211L11.9216 10.6534ZM12.8637 16.7564L13.0125 16.9161L12.6442 17.2591L12.6455 16.7555L12.8637 16.7564ZM12.9641 19.8869L12.7913 19.7534L12.7939 19.7499L12.9641 19.8869ZM12.923 19.9484L12.7323 19.8424L12.7341 19.8398L12.923 19.9484ZM12.923 19.9484L13.1137 20.0544L13.112 20.0571L12.923 19.9484ZM12.9178 19.9571L12.7035 19.9148L12.7118 19.8729L12.7354 19.8371L12.9178 19.9571ZM12.9161 19.9667L13.1303 20.0091V20.0099L12.9161 19.9667ZM12.9003 20.085L12.6822 20.0854V20.0789L12.6826 20.0723L12.9003 20.085ZM12.9003 20.678V20.8962H12.6822V20.678H12.9003ZM7.32536 20.678L7.54355 20.6876L7.53438 20.8962H7.32536V20.678ZM7.22762 19.6674L7.03518 19.7699L7.03256 19.7647L7.22762 19.6674ZM7.22762 19.6674L7.42006 19.5644L7.42267 19.5696L7.22762 19.6674ZM6.84493 15.343L7.06267 15.3299L7.06311 15.34L7.06267 15.35L6.84493 15.343ZM8.32202 14.6706L8.51926 14.764L8.39533 15.0258L8.17802 14.8342L8.32246 14.6706H8.32202ZM9.69002 14.3795L9.88682 14.4738L9.76115 14.7365L9.54427 14.5423L9.69002 14.3795ZM10.9646 14.02H11.1828V14.4336L10.8416 14.1998L10.9646 14.0195V14.02ZM11.922 10.6539L12.1201 10.5627L12.2633 10.872H11.9225V10.6539H11.922ZM11.3626 15.7973L11.1444 15.7999V15.7973H11.3626ZM10.9642 15.7973H11.1824V15.7999L10.9642 15.7973ZM10.9642 15.0236L11.1819 15.011L11.1824 15.0175V15.024L10.9642 15.0236ZM10.9638 15.0101H11.1819V15.0131L10.9638 15.0101ZM9.99547 15.035L9.77729 15.0367V15.035H9.99547ZM9.99504 15.0476L9.77686 15.0524V15.0437L9.77729 15.035L9.99504 15.0476ZM9.99591 16.0805L9.77773 16.0831V16.0805H9.99591ZM9.59751 16.0805H9.81569V16.0831L9.59751 16.0805ZM8.62878 15.3347H8.84696V15.34L8.62878 15.3347ZM8.62878 15.3382L8.84696 15.3435L8.84653 15.3483L8.62878 15.3382ZM8.62835 15.343L8.41017 15.3443V15.3387L8.4106 15.333L8.62835 15.343ZM8.62835 16.344L8.41017 16.3467V16.344H8.62835ZM8.22995 16.344H8.44813V16.3467L8.22995 16.344ZM7.5658 19.4619L7.37206 19.5627L7.5658 19.4623V19.4619ZM7.72595 20.678V20.8962H7.49598L7.5082 20.6662L7.72595 20.678ZM12.5006 20.678H12.7188V20.8962H12.5006V20.678ZM12.5011 20.0662L12.7188 20.0776V20.0784L12.5011 20.0662ZM12.5085 19.982L12.7254 20.0073V20.0078L12.5085 19.982ZM12.6023 19.711L12.7812 19.8358L12.7808 19.8363L12.6023 19.711ZM12.6097 19.7001L12.7895 19.824L12.7886 19.8249L12.6097 19.7001ZM12.6481 19.6469L12.8214 19.7795L12.8205 19.7804L12.6481 19.6469ZM12.6499 19.6443L12.4766 19.5116L12.4801 19.5072L12.6503 19.6438L12.6499 19.6443ZM13.0212 17.1452L12.8336 17.0339L12.8497 17.0069L12.8729 16.9855L13.0212 17.1452ZM13.0182 17.1504L12.8231 17.0527L12.8266 17.0457L12.8305 17.0392L13.0182 17.1504ZM13.0182 17.1504L13.2132 17.2482L13.2097 17.2547L13.2058 17.2613L13.0182 17.1504ZM12.4627 16.8533L12.2445 16.855V16.8533H12.4627ZM12.4627 16.8485H12.2445V16.8476L12.4627 16.8485ZM6.8938 22.6591V22.8773H6.80915L6.74675 22.8201L6.8938 22.6591ZM13.3555 22.6591L13.503 22.8197L13.4406 22.8773H13.3559L13.3555 22.6591ZM6.89467 21.0668L6.70398 21.1724L6.89511 21.0664L6.89467 21.0668ZM12.6608 11.5502C12.6621 11.1862 12.3383 10.872 11.9216 10.872V10.4357C12.5469 10.4357 13.0993 10.9148 13.0971 11.5519L12.6608 11.5502ZM12.6455 16.7564L12.6608 11.551L13.0971 11.5523L13.0819 16.7577L12.6455 16.7564ZM14.6851 15.3583L13.0125 16.9161L12.7149 16.5971L14.3875 15.0384L14.6851 15.3583ZM15.1262 15.1851C14.9683 15.1851 14.8086 15.2435 14.6851 15.3583L14.3879 15.0389C14.5952 14.846 14.8627 14.7483 15.1271 14.7487L15.1262 15.1851ZM15.5443 15.3574C15.4339 15.2435 15.2838 15.1855 15.1262 15.1851L15.1271 14.7487C15.392 14.7491 15.6582 14.8478 15.8571 15.0533L15.5438 15.357L15.5443 15.3574ZM15.6337 15.4499L15.5443 15.3574L15.8576 15.0537L15.947 15.1462L15.6337 15.4499ZM15.7734 15.8496C15.7856 15.7083 15.7411 15.5608 15.6337 15.4499L15.947 15.1462C16.1504 15.3557 16.2298 15.631 16.208 15.8867L15.7734 15.8496ZM15.5866 16.2808C15.6957 16.1455 15.7607 15.9963 15.7734 15.8496L16.208 15.8867C16.1866 16.1368 16.0779 16.3659 15.9265 16.5544L15.5866 16.2808ZM12.7939 19.7499L15.5862 16.2803L15.9261 16.5535L13.1342 20.0235L12.7939 19.7499ZM12.7616 19.7952L12.7913 19.7534L13.1369 20.0204C13.1377 20.0195 13.1307 20.0287 13.1207 20.0431L12.7616 19.7952ZM12.7341 19.8398L12.7616 19.7952L13.1207 20.0431L13.112 20.0571L12.7341 19.8398ZM12.7354 19.8371L13.112 20.0571L13.0998 20.0771L12.735 19.8376L12.7354 19.8371ZM12.7018 19.9248L12.7035 19.9148L13.1316 19.9999L13.1299 20.0095L12.7018 19.9248ZM12.6887 20.0016C12.6922 19.9702 12.6992 19.9371 12.7018 19.924L13.1294 20.0099L13.1251 20.0335L13.122 20.0531L12.6887 20.0016ZM12.6826 20.0723L12.6887 20.0016L13.122 20.0531L13.1181 20.0981L12.6826 20.0723ZM12.6822 20.0728L13.1177 20.0985V20.099L12.6822 20.0728ZM12.6817 20.6789V20.0863H13.1181V20.6789H12.6817ZM13.3651 20.8971H12.8999V20.4607H13.3651V20.8971ZM13.5331 21.0075C13.4877 20.9355 13.4244 20.8971 13.3651 20.8971V20.4607C13.6217 20.4607 13.8058 20.6226 13.9022 20.7744L13.5331 21.0075ZM13.6046 21.2837C13.6046 21.172 13.578 21.079 13.5331 21.0075L13.9022 20.7744C13.9982 20.9267 14.0414 21.1035 14.0414 21.2837H13.6046ZM13.6046 22.4457V21.2837H14.041V22.4457H13.6046ZM13.5331 22.7219C13.5785 22.6504 13.6046 22.5574 13.6046 22.4457H14.041C14.041 22.6259 13.9982 22.8027 13.9018 22.955L13.5326 22.7219H13.5331ZM13.3651 22.8323C13.4244 22.8323 13.4877 22.7935 13.5331 22.7219L13.9018 22.955C13.8058 23.1072 13.6221 23.2687 13.3651 23.2687V22.8323ZM6.889 22.8323H13.3651V23.2687H6.88944V22.8323H6.889ZM6.721 22.7219C6.76638 22.7939 6.82966 22.8323 6.889 22.8323V23.2687C6.63242 23.2687 6.44827 23.1068 6.35227 22.955L6.721 22.7219ZM6.64944 22.4457C6.64944 22.5574 6.67606 22.6504 6.721 22.7219L6.35227 22.955C6.25627 22.8027 6.21307 22.6259 6.21307 22.4457H6.64944ZM6.64944 21.2837V22.4457H6.21307V21.2837H6.64944ZM6.721 21.0075C6.67562 21.079 6.64944 21.172 6.64944 21.2837H6.21307C6.21307 21.1035 6.25584 20.9267 6.35227 20.7744L6.721 21.0075ZM6.889 20.8971C6.82966 20.8971 6.76638 20.9359 6.721 21.0075L6.35227 20.7744C6.44827 20.6222 6.63242 20.4607 6.889 20.4607V20.8971ZM7.32449 20.8971H6.889V20.4607H7.32449V20.8971ZM7.52391 19.8651C7.5466 19.9886 7.55184 20.16 7.55184 20.3084L7.54267 20.6885L7.10675 20.6697L7.11547 20.3084C7.11547 20.16 7.10937 20.0248 7.09497 19.9449L7.52391 19.8655V19.8651ZM7.41962 19.5657C7.43882 19.6019 7.46064 19.6421 7.4794 19.6918C7.49816 19.7416 7.51082 19.7961 7.52391 19.8651L7.0954 19.9445C7.09002 19.9104 7.0817 19.8768 7.07053 19.8441C7.06025 19.819 7.0483 19.7947 7.03475 19.7712L7.41962 19.5657ZM7.39475 19.519L7.41962 19.5657L7.03475 19.7717L7.00726 19.7198L7.39518 19.5195L7.39475 19.519ZM7.16784 18.8981C7.26646 19.255 7.34282 19.4187 7.39475 19.519L7.00682 19.7193C6.94006 19.5897 6.85278 19.3977 6.74718 19.0137L7.16784 18.8981ZM7.04086 16.8572L7.06442 18.0354C7.08318 18.405 7.11547 18.7078 7.16784 18.8981L6.74762 19.0142C6.68129 18.7742 6.64769 18.429 6.62893 18.0576L6.60493 16.8585L7.04129 16.8576L7.04086 16.8572ZM6.84406 15.3443L7.06224 15.3513L7.06136 15.3827L7.05875 15.4735L7.05089 15.8043L7.04086 16.8572L6.60449 16.8576L6.61453 15.7955L6.62238 15.4617L6.625 15.3696L6.62587 15.3452C6.62631 15.3369 6.62631 15.3369 6.84406 15.3439V15.3443ZM7.73642 14.6675C7.35504 14.6675 7.04042 14.9756 7.0618 15.3312L6.62631 15.3579C6.58704 14.7151 7.14166 14.2316 7.73642 14.2316V14.6675ZM8.17715 14.8355C8.05578 14.7274 7.89895 14.6676 7.73642 14.6675V14.2316C8.00517 14.2318 8.26455 14.3299 8.46558 14.5083L8.17715 14.8355ZM9.11358 14.3765C8.85438 14.3765 8.62878 14.5327 8.51882 14.7653L8.12435 14.5785C8.29933 14.2085 8.6698 13.9401 9.11358 13.9401V14.3765ZM9.54384 14.5436C9.42733 14.4393 9.27809 14.3765 9.11358 14.3765V13.9401C9.39242 13.9401 9.64376 14.047 9.83489 14.2185L9.54384 14.5436ZM10.4798 14.0889C10.2215 14.0889 9.99678 14.2443 9.88638 14.4755L9.49278 14.2875C9.66864 13.9196 10.0378 13.653 10.4798 13.653V14.0889ZM10.8411 14.2015C10.7369 14.1304 10.6138 14.0889 10.4798 14.0889V13.653C10.7063 13.653 10.9149 13.7237 11.0873 13.8415L10.8411 14.2015ZM11.1824 11.5519V14.0213H10.746V11.5506H11.1824V11.5519ZM11.9216 10.8734C11.5053 10.8734 11.1824 11.188 11.1824 11.5519H10.746C10.746 10.9166 11.2958 10.437 11.9216 10.437V10.8734ZM12.1197 10.5635L11.7235 10.7464V10.7459L12.1197 10.5635ZM11.144 11.5515C11.144 11.1365 11.4992 10.8267 11.9216 10.8267V11.263C11.7051 11.263 11.5803 11.411 11.5803 11.5515H11.144ZM11.144 15.799V11.5515H11.5803V15.7995L11.144 15.799ZM11.1549 15.7807C11.1492 15.7838 11.1435 15.7916 11.144 15.8016L11.5803 15.796C11.5821 15.947 11.5014 16.0853 11.3718 16.1595L11.1549 15.7807ZM11.171 15.7807C11.1658 15.7776 11.1601 15.7776 11.1549 15.7807L11.3718 16.1595C11.2426 16.2332 11.0833 16.2332 10.9542 16.1595L11.171 15.7807ZM11.1824 15.8016C11.1824 15.7912 11.1763 15.7838 11.171 15.7807L10.955 16.1595C10.8254 16.0853 10.7443 15.9474 10.7465 15.796L11.1828 15.8016H11.1824ZM11.1824 15.0254V15.799H10.746V15.0254H11.1824ZM11.1819 15.0144L10.7465 15.038L10.7456 15.0088L11.1819 15.0144ZM11.1819 14.7827V15.011L10.7456 15.0114V14.7827H11.1819ZM10.4798 14.0422C10.8761 14.0422 11.1819 14.3747 11.1819 14.7827H10.7456C10.7456 14.5916 10.6121 14.4786 10.4798 14.4786V14.0422ZM9.77729 14.7827C9.77729 14.3743 10.0836 14.0422 10.4798 14.0422V14.4786C10.3476 14.4786 10.2137 14.592 10.2137 14.7827H9.77729ZM9.77729 15.0367V14.7827H10.2137V15.0367H9.77729ZM9.77729 15.0367L10.2137 15.035L10.2128 15.0616L9.77729 15.0367ZM9.77773 15.072L9.77686 15.0546L10.2132 15.0441L9.77773 15.072ZM9.77773 15.0707L10.2132 15.0454L10.2141 15.0707H9.77773ZM9.77773 16.0818V15.0707H10.2141V16.0818H9.77773ZM9.78864 16.0635C9.78296 16.0665 9.77729 16.0739 9.77773 16.0844L10.2141 16.0787C10.2163 16.2297 10.1351 16.368 10.0055 16.4422L9.78907 16.0635H9.78864ZM9.80478 16.0635C9.79955 16.0604 9.79387 16.0604 9.78864 16.0635L10.0051 16.4422C9.87591 16.516 9.71707 16.516 9.58791 16.4422L9.80478 16.0635ZM9.81613 16.0844C9.81613 16.0739 9.81046 16.0665 9.80478 16.0635L9.58791 16.4422C9.45831 16.368 9.37758 16.2302 9.37977 16.0787L9.81613 16.0844ZM9.81613 15.0703V16.0814H9.37977V15.0703H9.81613ZM9.11358 14.3298C9.50936 14.3298 9.81613 14.6614 9.81613 15.0703H9.37977C9.37977 14.8796 9.24624 14.7662 9.11358 14.7662V14.3298ZM8.41104 15.0703C8.41104 14.6614 8.7178 14.3298 9.11358 14.3298V14.7662C8.98093 14.7662 8.8474 14.8796 8.8474 15.0703H8.41104ZM8.41104 15.336V15.0703H8.8474V15.336H8.41104ZM8.41104 15.3347V15.3312L8.8474 15.3417V15.3452L8.41104 15.3347ZM8.41104 15.3347V15.3299L8.84696 15.35V15.3548L8.41104 15.3347ZM8.41191 15.3657C8.41134 15.3592 8.41104 15.3526 8.41104 15.3461L8.8474 15.343V15.3321L8.41235 15.3653L8.41191 15.3657ZM8.41147 15.3504L8.41191 15.3631L8.84696 15.3295L8.84784 15.3504H8.41147ZM8.41147 16.3462V15.3504H8.84784V16.3462H8.41147ZM8.42238 16.3279C8.41671 16.331 8.41104 16.3388 8.41147 16.3493L8.84784 16.3436C8.85002 16.4946 8.76886 16.6329 8.63926 16.7071L8.42282 16.3283L8.42238 16.3279ZM8.43853 16.3279C8.43329 16.3248 8.42762 16.3248 8.42238 16.3279L8.63882 16.7067C8.50966 16.7804 8.35082 16.7804 8.22166 16.7067L8.43853 16.3279ZM8.44944 16.3493C8.44944 16.3388 8.44376 16.3314 8.43853 16.3279L8.22166 16.7067C8.09206 16.6325 8.01133 16.4946 8.01351 16.3432L8.44987 16.3488L8.44944 16.3493ZM8.44944 15.3509V16.3467H8.01307V15.3509H8.44944ZM7.73686 14.6217C8.13482 14.6217 8.44944 14.9442 8.44944 15.3509H8.01307C8.01307 15.1763 7.88522 15.0581 7.73686 15.0581V14.6217ZM7.02471 15.3531C6.98675 14.9315 7.36289 14.6217 7.73686 14.6217V15.0581C7.5658 15.0581 7.44886 15.1982 7.45933 15.3142L7.02471 15.3531ZM7.02471 15.3496L7.45933 15.3142C7.46077 15.3309 7.4612 15.3481 7.46064 15.3648L7.02471 15.3496ZM7.00333 16.8576L7.01336 15.8051L7.02122 15.4744L7.02384 15.3832L7.02471 15.3592C7.02515 15.3509 7.02515 15.3509 7.24289 15.3579L7.46064 15.3648L7.4602 15.3963L7.45758 15.4862L7.44973 15.8139L7.43969 16.8568L7.00333 16.8576ZM7.13206 18.9125C7.08449 18.7401 7.05438 18.4155 7.03475 18.0563L7.00333 16.8576L7.43969 16.8568L7.47024 18.0328C7.49031 18.4006 7.51998 18.6777 7.55271 18.7968L7.13206 18.9125ZM7.36289 19.5435C7.30224 19.4265 7.23242 19.2768 7.13206 18.9125L7.55271 18.7968C7.64609 19.135 7.70544 19.2555 7.75038 19.3432L7.36289 19.5435ZM7.3738 19.5644L7.36289 19.5435L7.75038 19.3432L7.76129 19.3637L7.3738 19.5644ZM7.48726 19.8755C7.46749 19.7661 7.42912 19.6609 7.3738 19.5644L7.76086 19.3632C7.81366 19.4645 7.87736 19.5871 7.9162 19.7961L7.48726 19.8755ZM7.50995 20.668C7.52086 20.4616 7.53046 20.109 7.48726 19.8755L7.9162 19.7961C7.96987 20.0872 7.95635 20.4882 7.94544 20.6911L7.50995 20.668ZM12.5028 20.8979H7.72726V20.4616H12.5019V20.8979H12.5028ZM12.721 20.0789V20.6798H12.2846V20.0789H12.721ZM12.721 20.0802L12.2846 20.0789L12.2855 20.0553L12.721 20.0802ZM12.7271 20.0091L12.7223 20.0597L12.7214 20.075C12.721 20.0793 12.721 20.0793 12.5033 20.0675L12.2855 20.0562L12.2859 20.047L12.2873 20.0261L12.2938 19.958L12.7271 20.0091ZM12.7284 19.9968L12.7271 20.0091L12.2938 19.958L12.2951 19.9467L12.7284 19.9968ZM12.7494 19.8974C12.7363 19.9314 12.7332 19.9563 12.7284 19.9968L12.2951 19.9467C12.3003 19.9013 12.3082 19.831 12.3414 19.7429L12.7494 19.8974ZM12.783 19.8376L12.7638 19.8664C12.7594 19.8738 12.7546 19.883 12.7494 19.8974L12.3414 19.7429C12.3706 19.6652 12.4042 19.6176 12.426 19.5871L12.7834 19.838L12.783 19.8376ZM12.7908 19.8262L12.7834 19.8371L12.4256 19.5875L12.433 19.5766L12.7908 19.8262ZM12.6503 19.6482L12.8227 19.7817L12.8139 19.7935L12.7913 19.8249L12.4321 19.5771L12.4635 19.5334L12.4736 19.5203C12.4779 19.5147 12.4779 19.5147 12.6503 19.6482ZM12.8253 19.7782L12.8235 19.7808L12.4771 19.5155L12.4788 19.5129L12.8253 19.7782ZM15.6141 16.3126L12.8222 19.7826L12.4823 19.509L15.2742 16.039L15.6141 16.3126ZM15.8118 15.8544C15.7982 16.012 15.7245 16.1752 15.6141 16.3126L15.2742 16.039C15.3422 15.9544 15.3723 15.871 15.3771 15.8174L15.8118 15.8544ZM15.6586 15.4155C15.7838 15.5446 15.8253 15.6934 15.8118 15.8544L15.3771 15.8174C15.3815 15.7676 15.3737 15.748 15.3453 15.7192L15.6586 15.4155ZM15.5691 15.323L15.6586 15.4155L15.3449 15.7187L15.2554 15.6262L15.5691 15.323ZM14.6624 15.3225C14.9242 15.079 15.3239 15.0699 15.5691 15.3225L15.2554 15.6262C15.1921 15.5608 15.0656 15.5433 14.96 15.6415L14.6628 15.3221L14.6624 15.3225ZM12.875 16.9872L14.6624 15.3225L14.96 15.6415L13.1726 17.3067L12.875 16.9872ZM12.8331 17.0409L12.8362 17.0357L13.2119 17.2578L13.2089 17.263L12.8331 17.0409ZM12.8227 17.0575C12.824 17.0562 12.8249 17.0549 12.8327 17.0414L13.2084 17.263C13.2001 17.277 13.1844 17.3045 13.1595 17.3346L12.8227 17.0575ZM12.7481 17.0972C12.7621 17.098 12.7761 17.0945 12.7882 17.0872C12.8022 17.0793 12.8148 17.0675 12.8227 17.0575L13.1595 17.3346C13.0989 17.4083 12.9531 17.5436 12.7271 17.5331L12.7481 17.0972ZM12.7337 17.0902L12.7472 17.0968L12.7271 17.5331C12.6135 17.5263 12.5063 17.4781 12.4251 17.3983L12.7337 17.0902ZM12.7184 17.0662L12.7258 17.0811C12.7271 17.0832 12.7293 17.0859 12.7337 17.0902L12.4247 17.3983C12.3662 17.3398 12.3379 17.284 12.3204 17.2451L12.7184 17.0662ZM12.6953 16.9803C12.6989 17.0099 12.7067 17.0388 12.7184 17.0662L12.3204 17.2451C12.2851 17.1666 12.2724 17.0994 12.2646 17.0514L12.6953 16.9803ZM12.4653 16.8555L12.6835 16.8533L12.6852 16.8895L12.6953 16.9803L12.2646 17.0514C12.2563 16.9999 12.2519 16.9519 12.2497 16.9174L12.2475 16.8751L12.2471 16.8624C12.2471 16.8563 12.2471 16.8563 12.4653 16.8546V16.8555ZM12.6835 16.8507V16.8555H12.2471V16.8507H12.6835ZM12.6992 11.5519L12.6835 16.8507L12.2471 16.8498L12.2628 11.5506L12.6992 11.5519ZM11.9216 10.8267C12.3431 10.8267 12.7005 11.1365 12.6992 11.5519L12.2628 11.5506C12.2633 11.4118 12.1389 11.263 11.9216 11.263V10.8267ZM13.3655 21.2876H13.3585V20.8512H13.3655V21.2876ZM13.1665 20.963C13.1868 20.9262 13.2173 20.896 13.2543 20.8761C13.2913 20.8562 13.3332 20.8474 13.3751 20.8508L13.3947 20.8534L13.4004 20.8543C13.3891 20.8521 13.3775 20.8509 13.3659 20.8508V21.2872C13.3472 21.2872 13.3315 21.285 13.3197 21.2828L13.3145 21.2819L13.3406 21.2854C13.3472 21.2859 13.3694 21.2876 13.3974 21.2824C13.4292 21.2766 13.4593 21.2638 13.4856 21.2449C13.5118 21.226 13.5336 21.2016 13.5492 21.1733L13.1674 20.9625L13.1665 20.963ZM13.208 21.2274L13.1971 21.216C13.1949 21.2139 13.1827 21.2008 13.1709 21.1811C13.1511 21.1483 13.1404 21.1109 13.1397 21.0726C13.139 21.0343 13.148 20.9965 13.1665 20.963L13.5488 21.1742C13.5673 21.1406 13.5767 21.1028 13.5761 21.0645C13.5754 21.0262 13.5646 20.9888 13.5449 20.956C13.5331 20.9363 13.5209 20.9232 13.5191 20.9211L13.5113 20.9128L13.2089 21.2274H13.208ZM7.04696 21.2278L7.05744 21.2165L6.69089 20.9804C6.70027 20.9655 6.71062 20.9512 6.72187 20.9376L6.73671 20.9206L6.74326 20.9141L7.04696 21.2278ZM7.06006 21.2134C7.06311 21.2086 7.05918 21.2134 7.05482 21.23C7.05019 21.2477 7.04784 21.2659 7.04784 21.2841H6.61147C6.61147 21.1685 6.64289 21.0568 6.69089 20.9804L7.05962 21.2134H7.06006ZM7.04827 21.2841V22.4462H6.61191V21.2841H7.04827ZM7.04827 22.4462C7.04827 22.4667 7.05133 22.4854 7.05526 22.5007C7.05918 22.516 7.06355 22.5225 7.06049 22.5173L6.69176 22.7503C6.64376 22.6739 6.61191 22.5618 6.61191 22.4462H7.04827ZM7.06049 22.5173L7.05002 22.5059L6.74893 22.8219C6.73235 22.8066 6.71271 22.7852 6.69089 22.7503L7.05962 22.5173H7.06049ZM6.89686 22.4427H13.3585V22.879H6.89642V22.4427H6.89686ZM13.211 22.4998L13.1984 22.5129L13.5641 22.7499C13.548 22.7762 13.5285 22.8003 13.506 22.8214L13.211 22.4998ZM13.1953 22.5168C13.1923 22.5221 13.1958 22.5168 13.2006 22.5003C13.2054 22.4837 13.2075 22.4662 13.2075 22.4457H13.6439C13.6439 22.5614 13.6121 22.6735 13.5641 22.7499L13.1953 22.5168ZM13.2075 22.4457V21.2837H13.6439V22.4457H13.2075ZM13.2075 21.2837C13.2075 21.2654 13.2052 21.2472 13.2006 21.2296C13.1962 21.213 13.1923 21.2082 13.1953 21.213L13.5645 20.98C13.6125 21.0563 13.6439 21.168 13.6439 21.2837H13.2075ZM13.1953 21.213L13.2041 21.223L13.5091 20.911L13.5187 20.9206L13.5335 20.9372C13.544 20.9494 13.554 20.9638 13.5645 20.98L13.1953 21.213ZM13.3585 21.2876L6.89686 21.2872V20.8508L13.3585 20.8512V21.2876ZM7.08842 20.9625C7.11466 21.01 7.12228 21.0655 7.1098 21.1183C7.10238 21.1497 7.08973 21.172 7.08362 21.1816C7.07184 21.2012 7.05918 21.2143 7.05744 21.2165L7.04915 21.2252L6.74675 20.9106C6.74936 20.9084 6.74326 20.9141 6.73715 20.9202C6.7354 20.9224 6.72275 20.9355 6.71096 20.9547C6.69099 20.9875 6.68006 21.0251 6.67929 21.0636C6.67853 21.1021 6.68795 21.1401 6.7066 21.1737L7.08842 20.9625ZM6.88944 20.8508C6.87786 20.8509 6.86632 20.8521 6.85496 20.8543L6.85278 20.8547L6.87984 20.8508C6.92178 20.8473 6.96383 20.8561 7.00092 20.876C7.038 20.8959 7.06854 20.9261 7.08886 20.963L6.7066 21.1737C6.72229 21.2021 6.7441 21.2266 6.77044 21.2454C6.79678 21.2643 6.827 21.2771 6.85889 21.2828C6.88682 21.2876 6.90864 21.2863 6.91518 21.2854L6.93438 21.2832H6.93613C6.92435 21.2854 6.90864 21.2876 6.88987 21.2876V20.8512L6.88944 20.8508ZM6.89686 21.2872H6.88944V20.8508H6.89686V21.2872Z" fill="#4197D3"/>
<path d="M14.1641 2.61324C14.1641 3.80058 13.1609 4.79025 11.8902 4.79025C10.6195 4.79025 9.61627 3.80058 9.61627 2.61324C9.61627 1.42589 10.619 0.436218 11.8902 0.436218C13.1613 0.436218 14.1641 1.42589 14.1641 2.61324Z" stroke="#4197D3" stroke-width="0.872727"/>
<path d="M13.8784 11.8908C14.155 11.5107 14.3173 11.0477 14.3173 10.5485C14.3173 9.25601 13.2308 8.20874 11.8907 8.20874C10.5507 8.20874 9.46411 9.25645 9.46411 10.5485C9.46411 11.0482 9.62644 11.5111 9.90309 11.8908" stroke="#EA9AA6" stroke-width="0.872727" stroke-linecap="round"/>
<path d="M11.8908 6.25476V6.7448" stroke="#4197D3" stroke-width="0.654545" stroke-linecap="round"/>
<path d="M22.0107 5.31911C22.0107 6.41482 21.0848 7.32988 19.9092 7.32988C18.7336 7.32988 17.8077 6.41482 17.8077 5.31911C17.8077 4.2234 18.7336 3.30835 19.9092 3.30835C21.0848 3.30835 22.0107 4.2234 22.0107 5.31911Z" stroke="#4197D3" stroke-width="0.872727"/>
<path d="M15.4072 9.19806L16.9568 7.70395" stroke="#4197D3" stroke-width="0.872727" stroke-linecap="round"/>
<path d="M1.74615 5.31911C1.74615 6.41482 2.67212 7.32988 3.84768 7.32988C5.02325 7.32988 5.94921 6.41482 5.94921 5.31911C5.94921 4.2234 5.02325 3.30835 3.84768 3.30835C2.67212 3.30835 1.74615 4.2234 1.74615 5.31911Z" stroke="#4197D3" stroke-width="0.872727"/>
<path d="M8.35006 9.19806L6.80054 7.70395" stroke="#4197D3" stroke-width="0.872727" stroke-linecap="round"/>
</svg>
